# xmcd CD database file
#
# Track frame offsets:
#	150
#	21375
#	39825
#	83085
#	112972
#	131535
#	155376
#
# Disc length: 2598 seconds
#
# Revision: 0
# Processed by: cddbd v1.4PL0 Copyright (c) Steve Scherf et al.
# Submitted via: CDex 1.50
#
DISCID=490a2407
DTITLE=가메오 메그르(전곡, 피아노), 아오키 유코(노래) - 바람 빛나는 숲속의 노래
DYEAR=1997
DGENRE=New Age
TTITLE0=빛과 물과 나무와 바람과
TTITLE1=아기나무
TTITLE2=거목
TTITLE3=바람 빛나는 숲속의 노래
TTITLE4=나무 사이로 새어나오는 햇살
TTITLE5=일곱 색깔 비의 파란 율동
TTITLE6=아련한 황갈색 풍경
EXTD=YEAR: 1997
EXTT0=
EXTT1=
EXTT2=
EXTT3=
EXTT4=
EXTT5=
EXTT6=
PLAYORDER=
